<mxfile host="drawio-plugin" modified="2022-07-06T07:28:52.010Z" agent="5.0 (Windows NT 6.2; Win64; x64) AppleWebKit/537.36 (KHTML, like Gecko) Chrome/89.0.4389.114 Safari/537.36" etag="Nq5f5sIRUjKWdhdpqgC-" version="15.5.4" type="embed"><diagram id="s7N5ViVdSLL6oQI3GZES" name="Page-1"><mxGraphModel dx="3510" dy="-1301" grid="0" gridSize="10" guides="1" tooltips="1" connect="1" arrows="1" fold="1" page="0" pageScale="1" pageWidth="850" pageHeight="1100" math="0" shadow="0"><root><mxCell id="0"/><mxCell id="1" parent="0"/><mxCell id="259" value="HAS_TYPE" style="edgeStyle=none;html=1;" parent="1" source="263" target="266" edge="1"><mxGeometry x="-0.4049" y="-1" relative="1" as="geometry"><mxPoint x="2220.888107186905" y="3746.1630481886837" as="sourcePoint"/><mxPoint x="2161.5064396227826" y="3972.937839232041" as="targetPoint"/><mxPoint as="offset"/></mxGeometry></mxCell><mxCell id="203" value="DEFINES" style="edgeStyle=none;html=1;dashed=1;" parent="1" source="145" target="196" edge="1"><mxGeometry relative="1" as="geometry"><mxPoint x="2151.017327068582" y="2958.198504987731" as="sourcePoint"/><mxPoint x="2458.951424836442" y="3780.8131911960545" as="targetPoint"/></mxGeometry></mxCell><mxCell id="80" value="HAS_STYLE" style="edgeStyle=none;html=1;" parent="1" source="82" target="86" edge="1"><mxGeometry relative="1" as="geometry"/></mxCell><mxCell id="81" value="HAS_FUNCTIONALITY" style="edgeStyle=none;html=1;" parent="1" source="82" target="87" edge="1"><mxGeometry relative="1" as="geometry"/></mxCell><mxCell id="82" value="&lt;b&gt;View&lt;/b&gt;&lt;br&gt;- name: &quot;Home&quot;" style="ellipse;whiteSpace=wrap;html=1;aspect=fixed;fillColor=#0050ef;strokeColor=#001DBC;fontColor=#ffffff;" parent="1" vertex="1"><mxGeometry x="750" y="3060" width="120" height="120" as="geometry"/></mxCell><mxCell id="83" value="HAS_VIEW" style="edgeStyle=none;html=1;" parent="1" source="84" target="82" edge="1"><mxGeometry relative="1" as="geometry"/></mxCell><mxCell id="84" value="&lt;b&gt;Project&lt;/b&gt;&lt;br&gt;- name: &quot;Bios&quot;" style="ellipse;whiteSpace=wrap;html=1;aspect=fixed;fillColor=#0050ef;strokeColor=#001DBC;fontColor=#ffffff;" parent="1" vertex="1"><mxGeometry x="771" y="2132" width="120" height="120" as="geometry"/></mxCell><mxCell id="212" value="NODE_STYLE" style="edgeStyle=none;html=1;" parent="1" source="86" target="191" edge="1"><mxGeometry relative="1" as="geometry"/></mxCell><mxCell id="252" value="NODE_STYLE" style="edgeStyle=none;html=1;" parent="1" source="86" target="189" edge="1"><mxGeometry relative="1" as="geometry"/></mxCell><mxCell id="261" value="NODE_STYLE" style="edgeStyle=none;html=1;" parent="1" source="86" target="260" edge="1"><mxGeometry relative="1" as="geometry"/></mxCell><mxCell id="289" value="NODE_STYLE" style="edgeStyle=none;rounded=0;orthogonalLoop=1;jettySize=auto;html=1;" edge="1" parent="1" source="86" target="286"><mxGeometry relative="1" as="geometry"/></mxCell><mxCell id="86" value="&lt;b&gt;Style&lt;/b&gt;&lt;br&gt;- name: &quot;Bios&quot;" style="ellipse;whiteSpace=wrap;html=1;aspect=fixed;fillColor=#0050ef;strokeColor=#001DBC;fontColor=#ffffff;" parent="1" vertex="1"><mxGeometry x="1110" y="3060" width="120" height="120" as="geometry"/></mxCell><mxCell id="281" value="HAS_ACTION" style="edgeStyle=none;html=1;" parent="1" source="87" target="268" edge="1"><mxGeometry relative="1" as="geometry"/></mxCell><mxCell id="87" value="&lt;b&gt;Functionality&lt;/b&gt;&lt;br&gt;- name: &quot;Bios&quot;" style="ellipse;whiteSpace=wrap;html=1;aspect=fixed;fillColor=#0050ef;strokeColor=#001DBC;fontColor=#ffffff;" parent="1" vertex="1"><mxGeometry x="1104" y="3292" width="120" height="120" as="geometry"/></mxCell><mxCell id="88" value="&lt;b&gt;RelStyle&lt;br&gt;&lt;/b&gt;- color: &quot;#808080&quot;&lt;br&gt;- lineStyle: &quot;dashed&quot;&lt;br&gt;- lineWidth: &quot;1&quot;&lt;b&gt;&lt;br&gt;&lt;/b&gt;" style="ellipse;whiteSpace=wrap;html=1;aspect=fixed;strokeColor=#666666;fontColor=#333333;fillColor=#f5f5f5;" parent="1" vertex="1"><mxGeometry x="2037" y="2936" width="120" height="120" as="geometry"/></mxCell><mxCell id="89" value="&lt;b&gt;NodeStyle&lt;br&gt;&lt;/b&gt;- color: &quot;#808080&quot;&lt;br&gt;- icon: &quot;question-mark-circle&quot;&lt;br&gt;- size: &quot;60&quot;&lt;b&gt;&lt;br&gt;&lt;/b&gt;" style="ellipse;whiteSpace=wrap;html=1;aspect=fixed;strokeColor=#666666;fontColor=#333333;fillColor=#f5f5f5;" parent="1" vertex="1"><mxGeometry x="2045" y="3069" width="120" height="120" as="geometry"/></mxCell><mxCell id="90" value="AUTOGENERATED_FROM" style="edgeStyle=none;html=1;" parent="1" source="87" target="112" edge="1"><mxGeometry x="-0.5132" y="1" relative="1" as="geometry"><mxPoint x="490" y="2950" as="sourcePoint"/><mxPoint x="218.75071864575693" y="3072.1800270363156" as="targetPoint"/><mxPoint as="offset"/></mxGeometry></mxCell><mxCell id="91" value="DEFAULT_NODE_STYLE" style="edgeStyle=none;html=1;" parent="1" source="86" target="89" edge="1"><mxGeometry relative="1" as="geometry"><Array as="points"/><mxPoint x="1113.0790021169696" y="3138.97366596101" as="sourcePoint"/><mxPoint x="953.6351579147081" y="3264.8512981990134" as="targetPoint"/></mxGeometry></mxCell><mxCell id="93" value="AUTOGENERATED_FROM" style="edgeStyle=none;html=1;" parent="1" source="87" target="145" edge="1"><mxGeometry relative="1" as="geometry"><mxPoint x="400" y="3130" as="sourcePoint"/><mxPoint x="1890.2057495013914" y="3414.0318711443324" as="targetPoint"/></mxGeometry></mxCell><mxCell id="94" value="&lt;b&gt;NodeStyle&lt;br&gt;&lt;/b&gt;- color: &quot;#8338ec&quot;&lt;br&gt;- size: &quot;120&quot;&lt;br&gt;- icon: &quot;globe-alt&quot;" style="ellipse;whiteSpace=wrap;html=1;aspect=fixed;strokeColor=#666666;fillColor=#f5f5f5;fontColor=#333333;" parent="1" vertex="1"><mxGeometry x="1625" y="2912" width="120" height="120" as="geometry"/></mxCell><mxCell id="95" value="NODE_STYLE" style="edgeStyle=none;html=1;" parent="1" source="86" target="94" edge="1"><mxGeometry relative="1" as="geometry"><mxPoint x="1210.0948210335755" y="3078.093336198971" as="sourcePoint"/><mxPoint x="1289.7677384685817" y="2941.8267340538605" as="targetPoint"/></mxGeometry></mxCell><mxCell id="96" value="FOR_NODE" style="edgeStyle=none;html=1;" parent="1" source="94" target="116" edge="1"><mxGeometry x="-0.519" y="3" relative="1" as="geometry"><mxPoint x="1417.0036022900513" y="2798.1926513730323" as="sourcePoint"/><mxPoint x="-1" as="offset"/><mxPoint x="1497" y="2527" as="targetPoint"/></mxGeometry></mxCell><mxCell id="97" value="DEFAULT_REL_STYLE" style="edgeStyle=none;html=1;" parent="1" source="86" target="88" edge="1"><mxGeometry relative="1" as="geometry"><Array as="points"/><mxPoint x="1227" y="3250" as="sourcePoint"/><mxPoint x="1386.3648420851669" y="3264.851298198724" as="targetPoint"/></mxGeometry></mxCell><mxCell id="98" value="QUERIES_WITH" style="edgeStyle=none;html=1;" parent="1" source="82" target="106" edge="1"><mxGeometry x="-0.0182" relative="1" as="geometry"><mxPoint as="offset"/><mxPoint x="1192.4878186232568" y="3339.9982160849777" as="sourcePoint"/><mxPoint x="810" y="3289.9999999999995" as="targetPoint"/></mxGeometry></mxCell><mxCell id="103" value="IMPLEMENTED" style="edgeStyle=none;html=1;" parent="1" source="106" target="107" edge="1"><mxGeometry x="-0.1464" y="1" relative="1" as="geometry"><mxPoint as="offset"/></mxGeometry></mxCell><mxCell id="106" value="Function&lt;br&gt;- name: &quot;List metagraphs, styles, functionalities&quot;" style="ellipse;whiteSpace=wrap;html=1;aspect=fixed;fillColor=#fa6800;fontColor=#000000;strokeColor=#C73500;" parent="1" vertex="1"><mxGeometry x="748.5" y="4079" width="120" height="120" as="geometry"/></mxCell><mxCell id="107" value="NativeCall&lt;br&gt;- cypher: 'MATCH (node) WHERE node:Project OR node:Style OR node:Functionality OR node:View OR node:Metagraph RETURN node&lt;span&gt;'&lt;/span&gt;" style="ellipse;aspect=fixed;fillColor=#fa6800;fontColor=#000000;strokeColor=#C73500;whiteSpace=wrap;html=1;" parent="1" vertex="1"><mxGeometry x="637" y="4356" width="343" height="343" as="geometry"/></mxCell><mxCell id="188" value="DEFINES" style="edgeStyle=none;html=1;dashed=1;" parent="1" source="112" target="116" edge="1"><mxGeometry relative="1" as="geometry"/></mxCell><mxCell id="112" value="&lt;b style=&quot;color: rgb(0 , 0 , 0) ; font-size: 13px&quot;&gt;@@Metagraph&lt;/b&gt;&lt;br style=&quot;color: rgb(0 , 0 , 0)&quot;&gt;&lt;span style=&quot;color: rgb(0 , 0 , 0) ; font-size: 13px&quot;&gt;- name: &quot;Meta&quot;&lt;/span&gt;&lt;br style=&quot;color: rgb(0 , 0 , 0)&quot;&gt;&lt;span style=&quot;color: rgb(0 , 0 , 0) ; font-size: 13px&quot;&gt;- uuid: &quot;d9262ce3-7847-4263-aa18-a27bcdc1f642&quot;&lt;/span&gt;&lt;font style=&quot;font-size: 13px&quot; color=&quot;#000000&quot;&gt;&lt;br&gt;&lt;/font&gt;" style="ellipse;whiteSpace=wrap;html=1;aspect=fixed;direction=west;strokeColor=#56517e;fillColor=#d0cee2;" parent="1" vertex="1"><mxGeometry x="1408" y="2825" width="120" height="120" as="geometry"/></mxCell><mxCell id="114" value="HAS_TYPE" style="edgeStyle=none;html=1;" parent="1" source="116" target="266" edge="1"><mxGeometry relative="1" as="geometry"><mxPoint x="1741.5362651027654" y="2638.1128239892178" as="targetPoint"/></mxGeometry></mxCell><mxCell id="116" value="&lt;b&gt;&lt;font style=&quot;font-size: 13px&quot; color=&quot;#000000&quot;&gt;@@NodeDef&lt;br&gt;&lt;/font&gt;&lt;/b&gt;&lt;span style=&quot;color: rgb(0 , 0 , 0) ; font-size: 13px&quot;&gt;- name: &quot;Metagraph&quot;&lt;br&gt;&lt;/span&gt;&lt;font color=&quot;#000000&quot;&gt;&lt;span style=&quot;font-size: 13px&quot;&gt;- uuid: &quot;c130660a-4718-4136-8ed6-c8abd4556443&quot;&lt;/span&gt;&lt;br&gt;&lt;/font&gt;" style="ellipse;whiteSpace=wrap;html=1;aspect=fixed;direction=west;strokeColor=#9673a6;fillColor=#CCFF99;" parent="1" vertex="1"><mxGeometry x="1525" y="2527" width="120" height="120" as="geometry"/></mxCell><mxCell id="119" value="HAS_CAPTION" style="edgeStyle=none;html=1;" parent="1" source="94" target="194" edge="1"><mxGeometry x="-0.0088" y="5" relative="1" as="geometry"><mxPoint as="offset"/><mxPoint x="1457" y="3387" as="sourcePoint"/><mxPoint x="828.7669681082912" y="3778.1651594585437" as="targetPoint"/></mxGeometry></mxCell><mxCell id="145" value="&lt;font color=&quot;#000000&quot;&gt;&lt;b style=&quot;font-size: 13px&quot;&gt;@@Metagraph&lt;/b&gt;&lt;br&gt;&lt;span style=&quot;font-size: 13px&quot;&gt;- name: &quot;Graphview&quot;&lt;/span&gt;&lt;br&gt;&lt;span style=&quot;font-size: 13px&quot;&gt;- uuid: &quot;6d897e9c-066a-45b4-a3a2-6c3b7a2fa73e&quot;&lt;/span&gt;&lt;br&gt;&lt;/font&gt;" style="ellipse;whiteSpace=wrap;html=1;aspect=fixed;direction=west;strokeColor=#56517e;fillColor=#d0cee2;" parent="1" vertex="1"><mxGeometry x="2070" y="3937" width="120" height="120" as="geometry"/></mxCell><mxCell id="155" value="HAS_OUTPUT" style="edgeStyle=none;rounded=0;orthogonalLoop=1;jettySize=auto;html=1;" parent="1" source="106" target="156" edge="1"><mxGeometry relative="1" as="geometry"><mxPoint x="852.5027708018545" y="3967.1209338900535" as="sourcePoint"/></mxGeometry></mxCell><mxCell id="156" value="Output&lt;br&gt;- name: &quot;node&quot;" style="ellipse;whiteSpace=wrap;html=1;aspect=fixed;fillColor=#fa6800;fontColor=#000000;strokeColor=#C73500;" parent="1" vertex="1"><mxGeometry x="1031" y="4074" width="120" height="120" as="geometry"/></mxCell><mxCell id="205" value="FOR_NODE" style="edgeStyle=none;html=1;" parent="1" source="189" target="198" edge="1"><mxGeometry relative="1" as="geometry"/></mxCell><mxCell id="189" value="&lt;b&gt;NodeStyle&lt;br&gt;&lt;/b&gt;- color: &quot;#ffbe0b&quot;&lt;br&gt;- size: &quot;80&quot;&lt;br&gt;- icon: &quot;calculator&quot;" style="ellipse;whiteSpace=wrap;html=1;aspect=fixed;strokeColor=#666666;fillColor=#f5f5f5;fontColor=#333333;" parent="1" vertex="1"><mxGeometry x="1802" y="3402" width="120" height="120" as="geometry"/></mxCell><mxCell id="207" value="FOR_NODE" style="edgeStyle=none;html=1;" parent="1" source="191" target="196" edge="1"><mxGeometry relative="1" as="geometry"/></mxCell><mxCell id="210" value="HAS_CAPTION" style="edgeStyle=none;html=1;" parent="1" source="191" target="194" edge="1"><mxGeometry relative="1" as="geometry"/></mxCell><mxCell id="191" value="&lt;b&gt;NodeStyle&lt;br&gt;&lt;/b&gt;- color: &quot;#ff006e&quot;&lt;br&gt;- size: &quot;120&quot;&lt;br&gt;- icon: &quot;presentation-chart-bar&quot;" style="ellipse;whiteSpace=wrap;html=1;aspect=fixed;strokeColor=#666666;fillColor=#f5f5f5;fontColor=#333333;" parent="1" vertex="1"><mxGeometry x="2010" y="3234" width="120" height="120" as="geometry"/></mxCell><mxCell id="192" value="HAS_PROPERTY" style="edgeStyle=none;rounded=0;orthogonalLoop=1;jettySize=auto;html=1;" parent="1" source="266" target="194" edge="1"><mxGeometry relative="1" as="geometry"/></mxCell><mxCell id="194" value="&lt;b&gt;&lt;font color=&quot;#000000&quot; style=&quot;font-size: 13px&quot;&gt;@@&lt;/font&gt;&lt;/b&gt;&lt;font style=&quot;font-size: 13px&quot; color=&quot;#000000&quot;&gt;&lt;b&gt;Property&lt;/b&gt;&lt;br&gt;- name: &quot;name&quot;&lt;br&gt;- type: &quot;String&quot;&lt;br&gt;&lt;/font&gt;" style="ellipse;whiteSpace=wrap;html=1;aspect=fixed;direction=west;strokeColor=#d79b00;fillColor=#FF9999;" parent="1" vertex="1"><mxGeometry x="2412" y="2524" width="120" height="120" as="geometry"/></mxCell><mxCell id="195" value="HAS_TYPE" style="edgeStyle=none;html=1;" parent="1" source="196" target="266" edge="1"><mxGeometry relative="1" as="geometry"/></mxCell><mxCell id="196" value="&lt;b&gt;&lt;font color=&quot;#000000&quot; style=&quot;font-size: 13px&quot;&gt;@@&lt;/font&gt;&lt;/b&gt;&lt;b&gt;&lt;font style=&quot;font-size: 13px&quot; color=&quot;#000000&quot;&gt;NodeDef&lt;br&gt;&lt;/font&gt;&lt;/b&gt;&lt;span style=&quot;color: rgb(0 , 0 , 0) ; font-size: 13px&quot;&gt;- name: &quot;View&quot;&lt;br&gt;&lt;/span&gt;&lt;font color=&quot;#000000&quot;&gt;&lt;span style=&quot;font-size: 13px&quot;&gt;- uuid: &quot;b30e0e28-9b6c-4393-8d41-3f5f31664cec&quot;&lt;/span&gt;&lt;br&gt;&lt;/font&gt;" style="ellipse;whiteSpace=wrap;html=1;aspect=fixed;direction=west;strokeColor=#9673a6;fillColor=#CCFF99;" parent="1" vertex="1"><mxGeometry x="2018" y="3627" width="120" height="120" as="geometry"/></mxCell><mxCell id="197" value="HAS_TYPE" style="edgeStyle=none;html=1;" parent="1" source="198" target="266" edge="1"><mxGeometry relative="1" as="geometry"/></mxCell><mxCell id="198" value="&lt;b&gt;&lt;font color=&quot;#000000&quot; style=&quot;font-size: 13px&quot;&gt;@@&lt;/font&gt;&lt;/b&gt;&lt;b&gt;&lt;font style=&quot;font-size: 13px&quot; color=&quot;#000000&quot;&gt;NodeDef&lt;br&gt;&lt;/font&gt;&lt;/b&gt;&lt;span style=&quot;color: rgb(0 , 0 , 0) ; font-size: 13px&quot;&gt;- name: &quot;Functionality&quot;&lt;/span&gt;&lt;b&gt;&lt;font style=&quot;font-size: 13px&quot; color=&quot;#000000&quot;&gt;&lt;br&gt;&lt;/font&gt;&lt;/b&gt;" style="ellipse;whiteSpace=wrap;html=1;aspect=fixed;direction=west;strokeColor=#9673a6;fillColor=#CCFF99;" parent="1" vertex="1"><mxGeometry x="1805" y="3634" width="120" height="120" as="geometry"/></mxCell><mxCell id="199" value="HAS_TYPE" style="edgeStyle=none;html=1;" parent="1" source="200" target="266" edge="1"><mxGeometry relative="1" as="geometry"/></mxCell><mxCell id="200" value="&lt;b&gt;&lt;font style=&quot;font-size: 13px&quot; color=&quot;#000000&quot;&gt;@@NodeDef&lt;br&gt;&lt;/font&gt;&lt;/b&gt;&lt;span style=&quot;color: rgb(0 , 0 , 0) ; font-size: 13px&quot;&gt;- name: &quot;Style&quot;&lt;/span&gt;&lt;b&gt;&lt;font style=&quot;font-size: 13px&quot; color=&quot;#000000&quot;&gt;&lt;br&gt;&lt;/font&gt;&lt;/b&gt;" style="ellipse;whiteSpace=wrap;html=1;aspect=fixed;direction=west;strokeColor=#9673a6;fillColor=#CCFF99;" parent="1" vertex="1"><mxGeometry x="2389" y="3617" width="120" height="120" as="geometry"/></mxCell><mxCell id="202" value="DEFINES" style="edgeStyle=none;html=1;dashed=1;" parent="1" source="145" target="200" edge="1"><mxGeometry relative="1" as="geometry"><mxPoint x="2124.1353602657045" y="2961.71269547646" as="sourcePoint"/><mxPoint x="2081.8450811831053" y="3383.285386832063" as="targetPoint"/></mxGeometry></mxCell><mxCell id="204" value="DEFINES" style="edgeStyle=none;html=1;dashed=1;" parent="1" source="145" target="198" edge="1"><mxGeometry relative="1" as="geometry"><mxPoint x="2161.017327068582" y="2968.198504987731" as="sourcePoint"/><mxPoint x="2468.951424836442" y="3790.8131911960545" as="targetPoint"/></mxGeometry></mxCell><mxCell id="258" value="DEFINES" style="edgeStyle=none;html=1;dashed=1;" parent="1" source="145" target="263" edge="1"><mxGeometry relative="1" as="geometry"><mxPoint x="2156.2393904434393" y="4306.239440809129" as="sourcePoint"/><mxPoint x="2232.0521487966666" y="3749.1695889493067" as="targetPoint"/></mxGeometry></mxCell><mxCell id="262" value="FOR_NODE" style="edgeStyle=none;html=1;" parent="1" source="260" target="263" edge="1"><mxGeometry relative="1" as="geometry"><mxPoint x="2241.7564296111154" y="3630.000494204882" as="targetPoint"/></mxGeometry></mxCell><mxCell id="264" value="HAS_CAPTION" style="edgeStyle=none;html=1;" parent="1" source="260" target="194" edge="1"><mxGeometry relative="1" as="geometry"/></mxCell><mxCell id="260" value="&lt;b&gt;NodeStyle&lt;br&gt;&lt;/b&gt;- color: &quot;#ade8f4&quot;&lt;br&gt;- size: &quot;120&quot;&lt;br&gt;- icon: &quot;archive&quot;" style="ellipse;whiteSpace=wrap;html=1;aspect=fixed;strokeColor=#666666;fillColor=#f5f5f5;fontColor=#333333;" parent="1" vertex="1"><mxGeometry x="2193" y="3207" width="120" height="120" as="geometry"/></mxCell><mxCell id="263" value="&lt;b&gt;&lt;font style=&quot;font-size: 13px&quot; color=&quot;#000000&quot;&gt;@@NodeDef&lt;br&gt;&lt;/font&gt;&lt;/b&gt;&lt;span style=&quot;color: rgb(0 , 0 , 0) ; font-size: 13px&quot;&gt;- name: &quot;Project&quot;&lt;br&gt;&lt;/span&gt;&lt;font color=&quot;#000000&quot;&gt;&lt;span style=&quot;font-size: 13px&quot;&gt;- uuid: &quot;e045565c-a449-42f2-ac15-e85f9c51f6da&lt;/span&gt;&lt;span style=&quot;font-size: 13px&quot;&gt;&quot;&lt;/span&gt;&lt;br&gt;&lt;/font&gt;" style="ellipse;whiteSpace=wrap;html=1;aspect=fixed;direction=west;strokeColor=#9673a6;fillColor=#CCFF99;" parent="1" vertex="1"><mxGeometry x="2204" y="3627" width="120" height="120" as="geometry"/></mxCell><mxCell id="266" value="&lt;font color=&quot;#000000&quot;&gt;&lt;b style=&quot;font-size: 13px&quot;&gt;@@Type&lt;/b&gt;&lt;br&gt;&lt;span style=&quot;font-size: 13px&quot;&gt;- name: &quot;Named&quot;&lt;/span&gt;&lt;br&gt;&lt;span style=&quot;font-size: 13px&quot;&gt;- uuid: &quot;73c199cd-87ee-478d-86bb-61e85e67e371&quot;&lt;/span&gt;&lt;br&gt;&lt;/font&gt;" style="ellipse;whiteSpace=wrap;html=1;aspect=fixed;direction=west;fillColor=#ffe6cc;strokeColor=#d79b00;" parent="1" vertex="1"><mxGeometry x="1883" y="2527" width="120" height="120" as="geometry"/></mxCell><mxCell id="267" value="DEFINES" style="edgeStyle=none;html=1;dashed=1;" parent="1" source="112" target="266" edge="1"><mxGeometry relative="1" as="geometry"><mxPoint x="677" y="3022" as="sourcePoint"/><mxPoint x="1911.9997590334333" y="4402.004096375373" as="targetPoint"/></mxGeometry></mxCell><mxCell id="270" value="WITH_PARAMETER" style="edgeStyle=none;html=1;" parent="1" source="268" target="269" edge="1"><mxGeometry relative="1" as="geometry"/></mxCell><mxCell id="279" value="EXECUTES" style="edgeStyle=none;html=1;" parent="1" source="268" target="284" edge="1"><mxGeometry relative="1" as="geometry"/></mxCell><mxCell id="268" value="&lt;b&gt;Action&lt;/b&gt;&lt;br&gt;- name: &quot;Run Cypher File&quot;&lt;br&gt;- group: &quot;I/O&quot;&lt;br&gt;- icon: &quot;cloud-upload&quot;&lt;br&gt;- updateStrategy: &quot;ignore&quot;" style="ellipse;whiteSpace=wrap;html=1;aspect=fixed;fillColor=#0050ef;strokeColor=#001DBC;fontColor=#ffffff;" parent="1" vertex="1"><mxGeometry x="2069" y="4329" width="120" height="120" as="geometry"/></mxCell><mxCell id="272" value="RENDERED_WITH" style="edgeStyle=none;html=1;" parent="1" source="269" target="271" edge="1"><mxGeometry relative="1" as="geometry"/></mxCell><mxCell id="280" value="PROVIDES_VALUE" style="edgeStyle=none;html=1;" parent="1" source="269" target="285" edge="1"><mxGeometry relative="1" as="geometry"><mxPoint x="2377.6363703168704" y="4932.001102283713" as="targetPoint"/></mxGeometry></mxCell><mxCell id="269" value="&lt;b&gt;ActionParameter&lt;/b&gt;&lt;br&gt;- name: &quot;fileName&quot;" style="ellipse;whiteSpace=wrap;html=1;aspect=fixed;fillColor=#0050ef;strokeColor=#001DBC;fontColor=#ffffff;" parent="1" vertex="1"><mxGeometry x="2315" y="4519" width="120" height="120" as="geometry"/></mxCell><mxCell id="271" value="&lt;b&gt;Widget&lt;/b&gt;&lt;br&gt;- type: &quot;textField&quot;" style="ellipse;whiteSpace=wrap;html=1;aspect=fixed;fillColor=#0050ef;strokeColor=#001DBC;fontColor=#ffffff;" parent="1" vertex="1"><mxGeometry x="2573" y="4517" width="120" height="120" as="geometry"/></mxCell><mxCell id="283" value="&lt;font style=&quot;font-size: 12px&quot;&gt;HAS_INPUT&lt;/font&gt;" style="edgeStyle=none;html=1;fontSize=14;" parent="1" source="284" target="285" edge="1"><mxGeometry relative="1" as="geometry"/></mxCell><mxCell id="284" value="&lt;font style=&quot;font-size: 14px&quot;&gt;&lt;b&gt;@@Function&lt;/b&gt;&lt;/font&gt;&lt;br&gt;- name: &quot;run cypher file&quot;&lt;br&gt;- uuid: &quot;7b098148-d426-4bd5-88ef-61c8457af5ac&quot;" style="ellipse;whiteSpace=wrap;html=1;aspect=fixed;fillColor=#76608a;fontColor=#ffffff;strokeColor=#432D57;" parent="1" vertex="1"><mxGeometry x="2044" y="4856" width="160" height="160" as="geometry"/></mxCell><mxCell id="285" value="&lt;font style=&quot;font-size: 14px&quot;&gt;&lt;b&gt;@@Input&lt;/b&gt;&lt;/font&gt;&lt;br&gt;- name: &quot;fileName&quot;" style="ellipse;whiteSpace=wrap;html=1;aspect=fixed;fillColor=#76608a;fontColor=#ffffff;strokeColor=#432D57;" parent="1" vertex="1"><mxGeometry x="2315" y="4881" width="120" height="120" as="geometry"/></mxCell><mxCell id="287" value="FOR_NODE" style="rounded=0;orthogonalLoop=1;jettySize=auto;html=1;" edge="1" parent="1" source="286" target="200"><mxGeometry relative="1" as="geometry"/></mxCell><mxCell id="288" value="HAS_CAPTION" style="edgeStyle=none;rounded=0;orthogonalLoop=1;jettySize=auto;html=1;" edge="1" parent="1" source="286" target="194"><mxGeometry relative="1" as="geometry"/></mxCell><mxCell id="286" value="&lt;b&gt;NodeStyle&lt;br&gt;&lt;/b&gt;- color: &quot;#5a8de0&quot;&lt;br&gt;- size: &quot;80&quot;&lt;br&gt;- icon: &quot;color-swatch&quot;" style="ellipse;whiteSpace=wrap;html=1;aspect=fixed;strokeColor=#666666;fillColor=#f5f5f5;fontColor=#333333;" vertex="1" parent="1"><mxGeometry x="2370" y="3180" width="120" height="120" as="geometry"/></mxCell></root></mxGraphModel></diagram></mxfile>